<?xml version="1.0" encoding="UTF-8" standalone="no"?>
<svg
   width="335"
   height="49"
   viewBox="0 0 335 49"
   fill="none"
   version="1.1"
   id="svg925"
   xmlns="http://www.w3.org/2000/svg"
   xmlns:svg="http://www.w3.org/2000/svg">
  <g
     clip-path="url(#clip0)"
     id="g918">
    <path
       d="M0.23999 48L22.62 0L44.22 48H36.66L22.56 15.24L7.61999 48H0.23999ZM61.8942 27.84C61.8942 32.52 61.9142 37.18 61.9542 41.82C66.3942 41.9 69.5742 41.52 71.4942 40.68C72.6542 40.16 73.5942 39.4 74.3142 38.4C75.0342 37.4 75.3942 36.24 75.3942 34.92C75.3942 32.12 74.2542 30.16 71.9742 29.04C70.0942 28.08 66.8742 27.68 62.3142 27.84C62.1942 27.84 62.0542 27.84 61.8942 27.84ZM66.5142 2.94C68.3942 3.06 70.0742 3.52 71.5542 4.32C73.0342 5.08 74.2142 6.04 75.0942 7.2C75.9742 8.32 76.6542 9.52 77.1342 10.8C77.6142 12.04 77.8942 13.3 77.9742 14.58C78.0142 15.7 77.9142 16.78 77.6742 17.82C77.4742 18.82 77.1942 19.66 76.8342 20.34C76.4742 21.02 76.0942 21.62 75.6942 22.14C75.3342 22.66 75.0142 23.02 74.7342 23.22L74.3142 23.58C74.5142 23.66 74.7942 23.78 75.1542 23.94C75.5142 24.06 76.1342 24.42 77.0142 25.02C77.8942 25.62 78.6742 26.34 79.3542 27.18C80.0342 27.98 80.6542 29.14 81.2142 30.66C81.8142 32.18 82.1342 33.86 82.1742 35.7C82.2142 37.78 81.6142 39.76 80.3742 41.64C79.1742 43.52 77.5742 45.06 75.5742 46.26C74.7742 46.7 73.8942 47.06 72.9342 47.34C71.9742 47.62 70.7142 47.82 69.1542 47.94C67.6342 48.02 66.3742 48.06 65.3742 48.06C64.4142 48.1 62.7342 48.1 60.3342 48.06C57.9742 48.02 56.2742 48 55.2342 48L55.2942 27.12L55.2342 22.2C57.7942 22.16 60.0542 22.14 62.0142 22.14C62.7742 22.14 63.3142 22.14 63.6342 22.14C63.9542 22.14 64.4542 22.12 65.1342 22.08C65.8142 22.04 66.3142 21.98 66.6342 21.9C66.9942 21.82 67.4542 21.7 68.0142 21.54C68.5742 21.38 68.9942 21.18 69.2742 20.94C69.5542 20.7 69.8742 20.4 70.2342 20.04C70.5942 19.64 70.8542 19.2 71.0142 18.72C71.1742 18.2 71.2942 17.62 71.3742 16.98C71.4942 16.3 71.5142 15.54 71.4342 14.7C71.3142 12.5 70.5342 10.98 69.0942 10.14C67.6542 9.3 65.3342 8.92 62.1342 9L55.2342 8.94V2.76C59.3942 2.68 63.1542 2.74 66.5142 2.94ZM126.076 9.18V2.82L153.676 2.76V9.18H143.296V48H136.456L136.516 9.18H126.076ZM175.993 2.88C180.073 3.08 183.373 4.22 185.893 6.3C188.413 8.38 189.753 11.3 189.913 15.06C190.033 17.94 189.653 20.24 188.773 21.96C187.933 23.64 186.673 25.14 184.993 26.46C183.673 27.5 182.033 28.26 180.073 28.74L193.993 48L185.593 47.94L172.753 29.52C172.313 29.48 171.873 29.46 171.433 29.46C171.473 35.66 171.493 41.84 171.493 48H164.713C164.713 41.6 164.733 35.18 164.773 28.74H164.713V23.58C167.073 23.58 169.333 23.58 171.493 23.58C172.493 23.58 173.313 23.58 173.953 23.58C174.633 23.54 175.433 23.46 176.353 23.34C177.313 23.18 178.113 23 178.753 22.8C179.393 22.56 180.053 22.22 180.733 21.78C181.413 21.34 181.933 20.82 182.293 20.22C182.693 19.62 182.993 18.86 183.193 17.94C183.393 16.98 183.433 15.92 183.313 14.76C183.233 13.84 182.853 12.96 182.173 12.12C181.493 11.24 180.653 10.56 179.653 10.08C178.213 9.48 175.493 9.2 171.493 9.24H164.713V2.76C168.913 2.72 172.673 2.76 175.993 2.88ZM199.775 48L222.155 0L243.755 48H236.195L222.095 15.24L207.155 48H199.775ZM283.385 37.26L283.265 45.54C283.145 45.62 282.925 45.74 282.605 45.9C282.325 46.06 281.725 46.34 280.805 46.74C279.885 47.14 278.945 47.5 277.985 47.82C277.025 48.1 275.805 48.34 274.325 48.54C272.845 48.78 271.365 48.88 269.885 48.84C267.805 48.76 265.705 48.38 263.585 47.7C261.505 47.02 259.505 46 257.585 44.64C255.665 43.28 253.965 41.7 252.485 39.9C251.045 38.1 249.885 35.96 249.005 33.48C248.165 30.96 247.765 28.28 247.805 25.44C247.845 22 248.525 18.78 249.845 15.78C251.165 12.78 252.885 10.3 255.005 8.34C257.125 6.34 259.525 4.78 262.205 3.66C264.885 2.5 267.605 1.9 270.365 1.86C272.605 1.86 274.805 2.14 276.965 2.7C279.165 3.22 280.765 3.76 281.765 4.32L283.325 5.16V13.32C283.205 13.2 283.025 13.04 282.785 12.84C282.585 12.6 282.085 12.2 281.285 11.64C280.485 11.04 279.625 10.54 278.705 10.14C277.785 9.7 276.565 9.3 275.045 8.94C273.565 8.58 272.025 8.38 270.425 8.34C268.505 8.34 266.585 8.76 264.665 9.6C262.785 10.44 261.105 11.6 259.625 13.08C258.145 14.52 256.925 16.3 255.965 18.42C255.045 20.5 254.545 22.7 254.465 25.02C254.385 27.38 254.785 29.66 255.665 31.86C256.585 34.02 257.785 35.88 259.265 37.44C260.785 38.96 262.505 40.18 264.425 41.1C266.385 42.02 268.345 42.5 270.305 42.54C271.785 42.54 273.245 42.38 274.685 42.06C276.165 41.7 277.405 41.26 278.405 40.74C279.405 40.22 280.285 39.7 281.045 39.18C281.845 38.62 282.425 38.16 282.785 37.8L283.385 37.26ZM289.607 9.18V2.82L317.207 2.76V9.18H306.827V48H299.987L300.047 9.18H289.607Z"
       fill="white"
       id="path912" />
    <path
       d="M101.098 9.71999C101.178 9.59999 101.318 9.45999 101.518 9.29999C101.678 9.13999 102.098 8.93999 102.778 8.69999C103.458 8.45999 104.218 8.33999 105.058 8.33999C106.858 8.37999 108.438 8.83999 109.798 9.71999C111.158 10.6 111.878 12 111.958 13.92C111.998 14.84 111.758 15.68 111.238 16.44C110.678 17.16 110.078 17.72 109.438 18.12L114.118 22.86C117.798 20.54 119.378 17.02 118.858 12.3C118.538 9.29999 117.058 6.81999 114.418 4.85999C111.738 2.85999 108.858 1.83999 105.778 1.79999C104.018 1.79999 102.298 2.11999 100.618 2.75999C98.938 3.35999 97.618 4.17999 96.658 5.21999L101.098 9.71999ZM106.918 26.46L101.818 21.48C100.738 22 99.838 22.46 99.118 22.86C98.358 23.26 97.478 23.88 96.478 24.72C95.478 25.52 94.678 26.4 94.078 27.36C93.478 28.28 92.978 29.48 92.578 30.96C92.178 32.4 91.998 34 92.038 35.76C92.078 36.88 92.278 38.04 92.638 39.24C92.998 40.44 93.598 41.64 94.438 42.84C95.238 44 96.218 45.04 97.378 45.96C98.498 46.84 99.938 47.54 101.698 48.06C103.418 48.58 105.318 48.8 107.398 48.72C109.238 48.6 110.938 48.24 112.498 47.64C114.018 47 115.218 46.3 116.098 45.54C116.978 44.74 117.718 43.92 118.318 43.08C118.918 42.24 119.318 41.58 119.518 41.1C119.718 40.58 119.818 40.28 119.818 40.2L113.998 33.9C113.998 34.02 113.998 34.18 113.998 34.38C113.958 34.54 113.898 34.9 113.818 35.46C113.738 35.98 113.638 36.5 113.518 37.02C113.358 37.5 113.118 38.06 112.798 38.7C112.438 39.34 112.038 39.9 111.598 40.38C111.118 40.86 110.498 41.28 109.738 41.64C108.978 42 108.118 42.24 107.158 42.36C105.278 42.56 103.498 42.1 101.818 40.98C100.138 39.86 99.178 38.38 98.938 36.54C98.778 35.34 98.818 34.24 99.058 33.24C99.298 32.2 99.638 31.38 100.078 30.78C100.518 30.14 101.178 29.52 102.058 28.92C102.898 28.32 103.658 27.88 104.338 27.6C104.978 27.28 105.838 26.9 106.918 26.46Z"
       fill="#D90429"
       id="path914" />
    <path
       d="M327.104 44.76C327.104 43.28 327.464 42.24 328.184 41.64C328.904 41.04 329.764 40.74 330.764 40.74C331.804 40.74 332.684 41.04 333.404 41.64C334.164 42.24 334.544 43.28 334.544 44.76C334.544 46.2 334.164 47.24 333.404 47.88C332.684 48.52 331.804 48.84 330.764 48.84C329.764 48.84 328.904 48.52 328.184 47.88C327.464 47.24 327.104 46.2 327.104 44.76Z"
       fill="#D90429"
       id="path916" />
  </g>
  <defs
     id="defs923">
    <clipPath
       id="clip0">
      <rect
         width="335"
         height="49"
         fill="white"
         id="rect920" />
    </clipPath>
  </defs>
</svg>
